<svg width="30" height="30" viewBox="0 0 30 30" fill="none" xmlns="http://www.w3.org/2000/svg">
<circle cx="15" cy="15" r="15" fill="white"/>
<path fill-rule="evenodd" clip-rule="evenodd" d="M11.604 17.7052C13.922 20.0232 16.075 21.3153 17.677 22.0333C19.076 22.6603 20.727 22.1682 22.014 20.8812L22.308 20.5862L18.772 18.3362C18.1 19.3162 16.829 19.8912 15.56 19.3562C14.599 18.9502 13.327 18.2562 12.19 17.1192C11.053 15.9822 10.36 14.7102 9.95398 13.7492C9.41798 12.4802 9.99198 11.2092 10.973 10.5373L8.72298 7.00125L8.42798 7.29525C7.14098 8.58225 6.64998 10.2333 7.27598 11.6323C7.99398 13.2343 9.28598 15.3872 11.604 17.7052ZM16.86 23.8582C15.045 23.0452 12.688 21.6173 10.19 19.1193C7.69198 16.6223 6.26398 14.2642 5.44998 12.4492C4.37498 10.0492 5.35698 7.53925 7.01398 5.88125L7.30798 5.58625C7.51972 5.37437 7.77635 5.21275 8.05893 5.11334C8.3415 5.01394 8.64279 4.97927 8.94056 5.01191C9.23833 5.04454 9.52496 5.14365 9.77929 5.30191C10.0336 5.46017 10.2492 5.67353 10.41 5.92625L13.24 10.3763C13.3149 10.4943 13.3643 10.6267 13.3849 10.765C13.4055 10.9033 13.3968 11.0444 13.3595 11.1792C13.3222 11.3139 13.257 11.4394 13.1682 11.5474C13.0794 11.6554 12.969 11.7436 12.844 11.8063L12.211 12.1233C11.779 12.3393 11.691 12.7203 11.796 12.9713C12.135 13.7743 12.702 14.8022 13.604 15.7052C14.507 16.6073 15.535 17.1742 16.338 17.5132C16.589 17.6192 16.97 17.5302 17.186 17.0982L17.503 16.4653C17.5656 16.3402 17.6537 16.2296 17.7616 16.1407C17.8696 16.0518 17.995 15.9865 18.1298 15.9491C18.2646 15.9117 18.4057 15.903 18.544 15.9235C18.6824 15.944 18.8149 15.9933 18.933 16.0682L23.383 18.8993C23.6357 19.0601 23.8491 19.2756 24.0073 19.5299C24.1656 19.7843 24.2647 20.0709 24.2973 20.3687C24.33 20.6664 24.2953 20.9677 24.1959 21.2503C24.0965 21.5329 23.9349 21.7895 23.723 22.0013L23.428 22.2952C21.771 23.9533 19.261 24.9342 16.86 23.8582Z" fill="#FF5E14"/>
</svg>
