<svg width="97" height="97" viewBox="0 0 97 97" fill="none" xmlns="http://www.w3.org/2000/svg">
<path d="M48.5 33.3438C48.5 30.128 49.7775 27.044 52.0513 24.7701C54.3252 22.4962 57.4092 21.2188 60.625 21.2188H84.875C85.6789 21.2188 86.45 21.5381 87.0184 22.1066C87.5869 22.6751 87.9062 23.4461 87.9062 24.25V72.75C87.9062 73.5539 87.5869 74.325 87.0184 74.8934C86.45 75.4619 85.6789 75.7812 84.875 75.7812H60.625C57.4092 75.7812 54.3252 77.0587 52.0513 79.3326C49.7775 81.6065 48.5 84.6905 48.5 87.9062" stroke="#FF5E14" stroke-width="6" stroke-linecap="round" stroke-linejoin="round"/>
<path d="M9.09375 72.75C9.09375 73.5539 9.41311 74.325 9.98158 74.8934C10.5501 75.4619 11.3211 75.7812 12.125 75.7812H36.375C39.5908 75.7812 42.6748 77.0587 44.9487 79.3326C47.2225 81.6065 48.5 84.6905 48.5 87.9062V33.3438C48.5 30.128 47.2225 27.044 44.9487 24.7701C42.6748 22.4962 39.5908 21.2188 36.375 21.2188H12.125C11.3211 21.2188 10.5501 21.5381 9.98158 22.1066C9.41311 22.6751 9.09375 23.4461 9.09375 24.25V72.75Z" stroke="#FF5E14" stroke-width="6" stroke-linecap="round" stroke-linejoin="round"/>
</svg>
