<svg width="34" height="28" viewBox="0 0 34 28" fill="none" xmlns="http://www.w3.org/2000/svg">
<g id="Archive">
<path id="Vector" d="M30.75 1.5H3.25C2.55964 1.5 2 2.05964 2 2.75V7.75C2 8.44036 2.55964 9 3.25 9H30.75C31.4404 9 32 8.44036 32 7.75V2.75C32 2.05964 31.4404 1.5 30.75 1.5Z" stroke="white" stroke-width="3" stroke-linecap="round" stroke-linejoin="round"/>
<path id="Vector_2" d="M29.5 9V25.25C29.5 25.5815 29.3683 25.8995 29.1339 26.1339C28.8995 26.3683 28.5815 26.5 28.25 26.5H5.75C5.41848 26.5 5.10054 26.3683 4.86612 26.1339C4.6317 25.8995 4.5 25.5815 4.5 25.25V9" stroke="white" stroke-width="3" stroke-linecap="round" stroke-linejoin="round"/>
<path id="Vector_3" d="M13.25 15.25H20.75" stroke="white" stroke-width="3" stroke-linecap="round" stroke-linejoin="round"/>
</g>
</svg>
