<svg width="39" height="18" viewBox="0 0 39 18" fill="none" xmlns="http://www.w3.org/2000/svg">
<g id="Paperclip">
<path id="Vector" d="M12.1875 11.4999H29.6875C30.3505 11.4999 30.9864 11.2366 31.4552 10.7677C31.9241 10.2989 32.1875 9.66301 32.1875 8.99997C32.1875 8.33694 31.9241 7.70106 31.4552 7.23223C30.9864 6.76339 30.3505 6.5 29.6875 6.5H7.1875C4.49398 6.5 2.31046 8.73858 2.31046 11.5C2.31046 14.2614 4.49398 16.5 7.1875 16.5H29.9991C31.9882 16.5 33.8959 15.7098 35.3024 14.3033C36.7089 12.8968 37.4991 10.9891 37.4991 9C37.4991 7.01088 36.7089 5.10322 35.3024 3.6967C33.8959 2.29018 31.9882 1.5 29.9991 1.5H12.4991" stroke="white" stroke-width="3" stroke-linecap="round" stroke-linejoin="round"/>
</g>
</svg>
