<svg width="32" height="32" viewBox="0 0 32 32" fill="none" xmlns="http://www.w3.org/2000/svg">
<g id="PencilLine">
<path id="Vector" d="M11 29.7501H3.5C3.16848 29.7501 2.85054 29.6184 2.61612 29.3839C2.3817 29.1495 2.25 28.8316 2.25 28.5001V21.5178C2.25 21.3537 2.28233 21.1911 2.34515 21.0395C2.40797 20.8878 2.50004 20.75 2.61612 20.6339L21.3661 1.88394C21.6005 1.64952 21.9185 1.51782 22.25 1.51782C22.5815 1.51782 22.8995 1.64952 23.1339 1.88394L30.1161 8.86617C30.3505 9.10059 30.4822 9.41854 30.4822 9.75006C30.4822 10.0816 30.3505 10.3995 30.1161 10.6339L11 29.7501Z" stroke="white" stroke-width="3" stroke-linecap="round" stroke-linejoin="round"/>
<path id="Vector_2" d="M17.25 6L26 14.75" stroke="white" stroke-width="3" stroke-linecap="round" stroke-linejoin="round"/>
<path id="Vector_3" d="M29.75 29.7501H11L2.32953 21.0796" stroke="white" stroke-width="3" stroke-linecap="round" stroke-linejoin="round"/>
</g>
</svg>
