<svg width="86" height="65" viewBox="0 0 86 65" fill="none" xmlns="http://www.w3.org/2000/svg">
<g opacity="0.7">
<path fill-rule="evenodd" clip-rule="evenodd" d="M40.9948 36.6021C40.8289 35.53 41.1697 34.4827 41.7871 33.818C42.5307 33.0175 42.6729 31.7748 42.1318 30.804C40.8 28.4145 41.2206 27.0365 41.7335 26.2771C42.4006 25.2897 43.6796 24.6718 44.75 24.6718L63.0833 24.6718C64.0697 24.6718 64.9454 23.9922 65.2574 22.9848C65.5693 21.9773 65.2474 20.868 64.4583 20.2309L60.0043 16.6346C59.9798 16.6083 59.9555 16.5823 59.9313 16.5564C59.3558 15.9396 58.8894 15.4399 58.5668 14.8366C58.2764 14.2937 58.1731 13.7923 58.3824 13.1161C58.5081 12.7101 58.6547 12.5101 58.75 12.4101C58.8467 12.3085 58.9578 12.2398 59.0963 12.1933C59.4228 12.0836 59.8301 12.1273 60.0572 12.2059L60.0984 12.2214C60.1382 12.2366 60.1992 12.2599 60.2792 12.291C60.4392 12.3532 60.6748 12.4463 60.9687 12.5668C61.5576 12.8083 62.3746 13.1575 63.283 13.5862C65.153 14.4686 67.2116 15.597 68.5268 16.7296C71.2927 19.1119 73.3875 22.4541 74.7928 25.8453C76.2075 29.259 76.8334 32.5022 76.8334 34.5404C76.8334 39.1442 75.8708 42.6459 73.4431 45.066C70.965 47.5361 66.5028 49.3434 58.5 49.3434C57.8468 49.3434 57.2114 49.3539 56.5805 49.3643C55.497 49.3821 54.4264 49.3997 53.3002 49.3638C51.5686 49.3085 50.0119 49.1255 48.7114 48.6858C47.4378 48.2552 46.5147 47.6151 45.8873 46.7012C45.2589 45.7861 44.75 44.3386 44.75 41.942C44.75 41.0075 44.2595 40.1532 43.4832 39.7353C41.7792 38.8181 41.1488 37.5964 40.9948 36.6021ZM60.7917 9.86879L61.5387 7.53638L61.5164 7.52811C60.5956 7.19766 59.1766 6.99763 57.7319 7.48264C56.1497 8.01379 54.7288 9.31263 54.0343 11.5558C53.327 13.8402 53.7965 15.806 54.5947 17.2986C55.136 18.3107 55.8631 19.1558 56.4003 19.7374L44.75 19.7374C42.3828 19.7374 39.6514 20.97 38.0268 23.3749C36.4902 25.6496 36.1674 28.6135 37.4658 31.8142C36.5471 33.4464 36.1679 35.4368 36.4739 37.4132C36.8298 39.7127 38.0825 41.848 40.2171 43.3888C40.3972 45.8892 41.0585 47.9695 42.2016 49.6343C43.5592 51.6116 45.4194 52.7447 47.3381 53.3934C49.2299 54.0331 51.2746 54.2356 53.1643 54.2959C54.3758 54.3346 55.6563 54.3145 56.8171 54.2962C57.419 54.2867 57.9888 54.2777 58.5 54.2777C66.9973 54.2777 72.8476 52.3843 76.557 48.6866C80.3168 44.9388 81.4167 39.8054 81.4167 34.5404C81.4167 31.6442 80.5846 27.7105 78.9785 23.8349C77.3632 19.937 74.8746 15.8778 71.3899 12.8766C69.5798 11.3176 67.0551 9.97871 65.1231 9.06696C64.1305 8.59855 63.2418 8.21879 62.6003 7.95571C62.2789 7.82393 62.0181 7.7208 61.8356 7.64985C61.7443 7.61435 61.6724 7.58686 61.6222 7.56781L61.5634 7.54562L61.5467 7.53936L61.5387 7.53638C61.5387 7.53638 61.5387 7.53638 60.7917 9.86879Z" fill="#008AC6"/>
<path fill-rule="evenodd" clip-rule="evenodd" d="M39.0208 32.0734C39.0208 33.4359 40.0469 34.5405 41.3125 34.5405L53.9167 34.5405C55.1823 34.5405 56.2083 33.4359 56.2083 32.0734C56.2083 30.7108 55.1823 29.6062 53.9167 29.6062L41.3125 29.6062C40.0469 29.6062 39.0208 30.7108 39.0208 32.0734Z" fill="#008AC6"/>
<path fill-rule="evenodd" clip-rule="evenodd" d="M40.1667 41.942C40.1667 43.3046 41.1927 44.4092 42.4583 44.4092L56.2083 44.4092C57.474 44.4092 58.5 43.3046 58.5 41.942C58.5 40.5794 57.474 39.4749 56.2083 39.4749L42.4583 39.4749C41.1927 39.4749 40.1667 40.5794 40.1667 41.942Z" fill="#008AC6"/>
<path d="M64 59.5493L51 12.5356H38V59.5493H64Z" fill="white"/>
<path fill-rule="evenodd" clip-rule="evenodd" d="M47.46 41.7073C47.635 40.6352 47.2756 39.5878 46.6245 38.9231C45.8403 38.1226 45.6904 36.8799 46.261 35.9091C47.6654 33.5195 47.222 32.1415 46.681 31.3821C45.9776 30.3946 44.6288 29.7767 43.5001 29.7767L24.1667 29.7767C23.1265 29.7767 22.203 29.0971 21.8741 28.0897C21.5451 27.0822 21.8846 25.9729 22.7167 25.3357L27.4137 21.7393C27.4395 21.7131 27.4652 21.687 27.4906 21.6611C28.0975 21.0443 28.5894 20.5445 28.9296 19.9413C29.2358 19.3983 29.3448 18.8969 29.124 18.2208C28.9914 17.8148 28.8369 17.6147 28.7364 17.5147C28.6344 17.4131 28.5172 17.3444 28.3712 17.2979C28.0268 17.1882 27.5974 17.2319 27.3579 17.3105L27.3144 17.3261C27.2724 17.3412 27.2081 17.3645 27.1238 17.3956C26.955 17.4578 26.7066 17.5509 26.3966 17.6714C25.7756 17.913 24.9141 18.2621 23.9561 18.6908C21.9841 19.5733 19.8132 20.7017 18.4263 21.8344C15.5095 24.2166 13.3005 27.559 11.8185 30.9503C10.3267 34.364 9.66664 37.6073 9.66664 39.6456C9.66664 44.2495 10.6817 47.7513 13.2419 50.1714C15.855 52.6416 20.5607 54.4489 29 54.4489C29.6889 54.4489 30.3588 54.4594 31.0242 54.4698C32.1668 54.4876 33.2958 54.5053 34.4834 54.4693C36.3095 54.414 37.9511 54.2311 39.3225 53.7913C40.6656 53.3607 41.639 52.7206 42.3007 51.8067C42.9633 50.8915 43.5 49.444 43.5 47.0474C43.5 46.1128 44.0172 45.2585 44.8359 44.8406C46.6328 43.9234 47.2977 42.7016 47.46 41.7073ZM26.5833 14.9733L25.7955 12.6409L25.819 12.6326C26.7901 12.3022 28.2865 12.1021 29.81 12.5871C31.4785 13.1183 32.9769 14.4172 33.7093 16.6604C34.4552 18.9449 33.96 20.9107 33.1183 22.4033C32.5475 23.4155 31.7807 24.2606 31.2142 24.8422L43.5001 24.8422C45.9963 24.8422 48.8767 26.0748 50.5899 28.4798C52.2103 30.7546 52.5507 33.7185 51.1815 36.9193C52.1503 38.5515 52.5502 40.542 52.2276 42.5185C51.8522 44.818 50.5312 46.9534 48.2801 48.4942C48.0903 50.9946 47.3928 53.075 46.1874 54.7398C44.7557 56.7172 42.794 57.8503 40.7707 58.4991C38.7757 59.1387 36.6195 59.3413 34.6267 59.4016C33.3492 59.4403 31.9988 59.4201 30.7747 59.4018C30.1399 59.3924 29.5391 59.3834 29 59.3834C20.0392 59.3834 13.8698 57.4899 9.95805 53.7921C5.99324 50.0442 4.83331 44.9107 4.83331 39.6456C4.83331 36.7493 5.71083 32.8155 7.40449 28.9398C9.10793 25.0418 11.7322 20.9825 15.407 17.9812C17.3159 16.4222 19.9783 15.0833 22.0157 14.1715C23.0624 13.7031 23.9996 13.3233 24.6761 13.0602C25.0149 12.9284 25.29 12.8253 25.4825 12.7543C25.5788 12.7189 25.6546 12.6914 25.7075 12.6723L25.7695 12.6501L25.7871 12.6439L25.7955 12.6409C25.7955 12.6409 25.7955 12.6409 26.5833 14.9733Z" fill="#008AC6"/>
<path fill-rule="evenodd" clip-rule="evenodd" d="M49.5417 37.1785C49.5417 38.5411 48.4597 39.6457 47.125 39.6457L33.8333 39.6457C32.4986 39.6457 31.4167 38.5411 31.4167 37.1785C31.4167 35.8159 32.4986 34.7113 33.8333 34.7113L47.125 34.7113C48.4597 34.7113 49.5417 35.8159 49.5417 37.1785Z" fill="#008AC6"/>
<path fill-rule="evenodd" clip-rule="evenodd" d="M48.3333 47.0474C48.3333 48.41 47.2513 49.5146 45.9167 49.5146L31.4167 49.5146C30.082 49.5146 29 48.41 29 47.0474C29 45.6848 30.082 44.5801 31.4167 44.5801L45.9167 44.5801C47.2513 44.5801 48.3333 45.6848 48.3333 47.0474Z" fill="#008AC6"/>
</g>
</svg>
