<svg width="70" height="70" viewBox="0 0 70 70" fill="none" xmlns="http://www.w3.org/2000/svg">
<path d="M33.5411 7.07617L11.4871 11.487L7.07635 33.5409C7.00573 33.8941 7.02338 34.2592 7.12774 34.6038C7.2321 34.9485 7.41993 35.2621 7.67458 35.5167L36.2359 64.078C36.439 64.2812 36.6802 64.4423 36.9456 64.5522C37.211 64.6621 37.4954 64.7187 37.7827 64.7187C38.0699 64.7187 38.3544 64.6621 38.6198 64.5522C38.8852 64.4423 39.1264 64.2812 39.3295 64.078L64.0782 39.3293C64.2814 39.1262 64.4425 38.885 64.5524 38.6196C64.6623 38.3542 64.7189 38.0698 64.7189 37.7825C64.7189 37.4952 64.6623 37.2108 64.5524 36.9454C64.4425 36.68 64.2814 36.4388 64.0782 36.2357L35.5169 7.6744C35.2623 7.41975 34.9487 7.23191 34.604 7.12755C34.2593 7.02319 33.8942 7.00555 33.5411 7.07617V7.07617Z" stroke="#008AC6" stroke-width="6" stroke-linecap="round" stroke-linejoin="round"/>
<path d="M22 26C24.2091 26 26 24.2091 26 22C26 19.7909 24.2091 18 22 18C19.7909 18 18 19.7909 18 22C18 24.2091 19.7909 26 22 26Z" fill="#008AC6"/>
</svg>
