<svg width="97" height="97" viewBox="0 0 97 97" fill="none" xmlns="http://www.w3.org/2000/svg">
<path d="M60.4043 15.1562C65.543 16.5383 70.2284 19.2462 73.9911 23.009C77.7538 26.7717 80.4618 31.4571 81.8438 36.5958" stroke="#FF5E14" stroke-width="6" stroke-linecap="round" stroke-linejoin="round"/>
<path d="M57.2653 26.8711C60.3485 27.7003 63.1597 29.3251 65.4173 31.5827C67.675 33.8404 69.2998 36.6516 70.129 39.7348" stroke="#FF5E14" stroke-width="6" stroke-linecap="round" stroke-linejoin="round"/>
<path d="M35.0398 47.2934C38.1841 53.7216 43.3949 58.9087 49.8374 62.0237C50.3088 62.2471 50.8302 62.3438 51.3503 62.3045C51.8704 62.2651 52.3713 62.091 52.8037 61.7993L62.2899 55.4737C62.7095 55.1939 63.1922 55.0232 63.6943 54.9771C64.1965 54.931 64.7022 55.0108 65.1657 55.2095L82.9125 62.8153C83.5154 63.0714 84.0187 63.5164 84.3466 64.0834C84.6746 64.6504 84.8093 65.3087 84.7306 65.9589C84.1697 70.3482 82.0281 74.3825 78.7069 77.3065C75.3856 80.2305 71.1125 81.8436 66.6875 81.8438C53.0206 81.8438 39.9134 76.4147 30.2494 66.7507C20.5854 57.0867 15.1563 43.9795 15.1562 30.3126C15.1565 25.8876 16.7696 21.6145 19.6936 18.2932C22.6176 14.972 26.6519 12.8304 31.0411 12.2694C31.6914 12.1908 32.3496 12.3255 32.9166 12.6534C33.4836 12.9814 33.9287 13.4847 34.1848 14.0875L41.7972 31.8498C41.9941 32.3093 42.0744 32.8103 42.0308 33.3082C41.9872 33.8062 41.8211 34.2856 41.5474 34.7039L35.2438 44.3356C34.9569 44.7688 34.7873 45.2691 34.7515 45.7876C34.7158 46.306 34.8151 46.8248 35.0398 47.2934V47.2934Z" stroke="#FF5E14" stroke-width="6" stroke-linecap="round" stroke-linejoin="round"/>
</svg>
