<svg width="30" height="30" viewBox="0 0 30 30" fill="none" xmlns="http://www.w3.org/2000/svg">
<circle cx="15" cy="15" r="15" fill="white"/>
<path fill-rule="evenodd" clip-rule="evenodd" d="M5.99999 9.5C5.99994 8.80893 6.20446 8.13331 6.58779 7.5583C6.97112 6.98328 7.5161 6.53462 8.15403 6.26886C8.79196 6.0031 9.49429 5.93214 10.1725 6.06493C10.8507 6.19771 11.4744 6.52829 11.965 7.015L12.372 7.419L12.927 7.271C14.2841 6.90633 15.7133 6.90556 17.0709 7.26878C18.4284 7.63201 19.6663 8.3464 20.6599 9.34007C21.6536 10.3337 22.368 11.5716 22.7312 12.9291C23.0944 14.2866 23.0937 15.7159 22.729 17.073L22.581 17.628L22.985 18.035C23.6414 18.6914 24.0102 19.5817 24.0102 20.51C24.0102 21.4383 23.6414 22.3286 22.985 22.985C22.3286 23.6414 21.4383 24.0102 20.51 24.0102C19.5817 24.0102 18.6914 23.6414 18.035 22.985L17.628 22.581L17.073 22.729C15.7158 23.0939 14.2864 23.0948 12.9288 22.7317C11.5711 22.3686 10.3331 21.6542 9.33927 20.6605C8.34547 19.6668 7.63097 18.4288 7.26771 17.0712C6.90444 15.7136 6.90523 14.2842 7.26999 12.927L7.41799 12.372L7.01399 11.965C6.36281 11.3101 5.99812 10.4236 5.99999 9.5ZM9.49999 4C8.46311 4.00005 7.44735 4.29319 6.56989 4.84563C5.69242 5.39808 4.98899 6.1873 4.54073 7.12229C4.09247 8.05728 3.91765 9.09993 4.03642 10.13C4.15519 11.1601 4.56271 12.1356 5.21199 12.944C5.07078 13.6202 4.99973 14.3092 4.99999 15C4.99999 20.523 9.47699 25 15 25C15.704 25 16.392 24.927 17.056 24.788C18.1127 25.6362 19.4454 26.0645 20.7985 25.9907C22.1516 25.9169 23.4298 25.3461 24.3879 24.388C25.3461 23.4298 25.9169 22.1516 25.9907 20.7985C26.0645 19.4454 25.6362 18.1128 24.788 17.056C24.928 16.392 25 15.704 25 15C25 9.477 20.523 5 15 5C14.296 5 13.608 5.073 12.944 5.212C11.9683 4.42621 10.7528 3.99846 9.49999 4ZM13.642 12.33C13.775 12.077 14.229 11.75 14.932 11.75C16.139 11.75 16.804 12.222 17.11 12.456C17.3208 12.617 17.587 12.6876 17.8499 12.6524C18.1129 12.6171 18.351 12.4789 18.512 12.268C18.673 12.0572 18.7436 11.791 18.7084 11.5281C18.6731 11.2651 18.5348 11.027 18.324 10.866C17.834 10.492 16.747 9.75 14.932 9.75C13.664 9.75 12.425 10.344 11.824 11.49C11.62 11.8719 11.5198 12.3006 11.5333 12.7333C11.5468 13.166 11.6736 13.5876 11.901 13.956C12.33 14.669 13.073 15.178 13.949 15.414L15.503 15.832C16.101 15.993 17.01 16.549 16.683 17.298C16.485 17.75 15.786 18.25 14.756 18.25C13.866 18.25 13.08 18.096 12.356 17.544C12.1449 17.3868 11.8803 17.3191 11.6196 17.3557C11.359 17.3923 11.1233 17.5302 10.9636 17.7395C10.8039 17.9487 10.7332 18.2125 10.7668 18.4736C10.8004 18.7346 10.9356 18.9719 11.143 19.134C12.113 19.874 13.12 20.25 14.535 20.25C16.114 20.25 17.837 19.652 18.515 18.1C18.915 17.185 18.783 16.226 18.285 15.457C17.516 14.273 16.194 13.93 14.913 13.599C14.7648 13.5608 14.6168 13.5218 14.469 13.482C13.943 13.341 13.329 12.929 13.642 12.33Z" fill="#FF5E14"/>
</svg>
