<svg width="35" height="35" viewBox="0 0 35 35" fill="none" xmlns="http://www.w3.org/2000/svg">
<g id="PaperPlaneTilt">
<path id="Vector" d="M31.8517 1.60602L2.73798 9.81758C2.49305 9.88666 2.27504 10.0289 2.11309 10.2252C1.95114 10.4215 1.85296 10.6625 1.83168 10.9161C1.8104 11.1697 1.86702 11.4237 1.99399 11.6443C2.12095 11.8648 2.31221 12.0414 2.54219 12.1503L15.9189 18.4866C16.1798 18.6102 16.3899 18.8203 16.5135 19.0812L22.8498 32.4579C22.9587 32.6879 23.1353 32.8791 23.3558 33.0061C23.5764 33.1331 23.8304 33.1897 24.084 33.1684C24.3376 33.1471 24.5786 33.0489 24.7749 32.887C24.9712 32.725 25.1134 32.507 25.1825 32.2621L33.3941 3.14841C33.4544 2.93455 33.4566 2.70848 33.4005 2.49348C33.3444 2.27848 33.232 2.08232 33.0749 1.9252C32.9178 1.76808 32.7216 1.65568 32.5066 1.59958C32.2916 1.54348 32.0655 1.5457 31.8517 1.60602Z" stroke="white" stroke-width="3" stroke-linecap="round" stroke-linejoin="round"/>
<path id="Vector_2" d="M16.3223 18.6778L23.3934 11.6067" stroke="white" stroke-width="3" stroke-linecap="round" stroke-linejoin="round"/>
</g>
</svg>
