<svg width="30" height="30" viewBox="0 0 30 30" fill="none" xmlns="http://www.w3.org/2000/svg">
<circle cx="15" cy="15" r="15" fill="white"/>
<path fill-rule="evenodd" clip-rule="evenodd" d="M6.50042 14.5C6.50042 12.8189 6.99893 11.1755 7.93293 9.77765C8.86692 8.37984 10.1944 7.29037 11.7476 6.64702C13.3008 6.00368 15.0098 5.83535 16.6587 6.16333C18.3075 6.4913 19.8221 7.30085 21.0108 8.48959C22.1996 9.67834 23.0091 11.1929 23.3371 12.8417C23.6651 14.4906 23.4967 16.1996 22.8534 17.7528C22.21 19.306 21.1206 20.6335 19.7228 21.5675C18.3249 22.5015 16.6816 23 15.0004 23C13.3923 23.0029 11.8166 22.547 10.4584 21.686C10.3376 21.6096 10.2018 21.5599 10.0602 21.5404C9.91855 21.521 9.77439 21.5321 9.63742 21.573L6.75742 22.432L7.84242 19.895C7.90548 19.7473 7.93205 19.5866 7.91986 19.4264C7.90768 19.2663 7.8571 19.1115 7.77242 18.975C6.93835 17.6316 6.49767 16.0813 6.50042 14.5ZM15.0004 4C9.20142 4 4.50042 8.701 4.50042 14.5C4.50042 16.338 4.97342 18.068 5.80542 19.573L4.08042 23.607C4.00576 23.7817 3.98243 23.9741 4.01317 24.1617C4.04391 24.3492 4.12745 24.5241 4.25399 24.6658C4.38054 24.8076 4.54486 24.9104 4.7277 24.9621C4.91055 25.0139 5.10435 25.0124 5.28642 24.958L9.78642 23.616C11.3734 24.5255 13.1713 25.0027 15.0004 25C20.7994 25 25.5004 20.299 25.5004 14.5C25.5004 8.701 20.7994 4 15.0004 4ZM17.2934 16.682L15.9784 17.608C15.2539 17.1912 14.5886 16.6789 14.0004 16.085C13.369 15.4544 12.823 14.7437 12.3764 13.971L13.2114 13.262C13.3854 13.1144 13.5037 12.9117 13.5466 12.6876C13.5895 12.4635 13.5545 12.2315 13.4474 12.03L12.3834 10.03C12.3126 9.89718 12.2127 9.78205 12.0912 9.6932C11.9697 9.60436 11.8297 9.54408 11.6817 9.51688C11.5337 9.48967 11.3814 9.49624 11.2362 9.53608C11.0911 9.57593 10.9568 9.64803 10.8434 9.747L10.5274 10.022C9.76842 10.684 9.31942 11.772 9.69142 12.874C10.2899 14.6171 11.2803 16.1997 12.5864 17.5C14.3994 19.313 16.2414 20.027 17.3194 20.305C18.1874 20.528 19.0084 20.229 19.5874 19.757L20.1784 19.275C20.303 19.1734 20.4013 19.0432 20.4649 18.8956C20.5285 18.7479 20.5555 18.5871 20.5438 18.4268C20.532 18.2664 20.4817 18.1113 20.3972 17.9745C20.3127 17.8377 20.1965 17.7233 20.0584 17.641L18.3804 16.641C18.2145 16.542 18.0234 16.4932 17.8303 16.5004C17.6373 16.5077 17.4504 16.5708 17.2924 16.682H17.2934Z" fill="#FF5E14"/>
</svg>
