<?xml version="1.0" encoding="utf-8"?><svg xmlns="http://www.w3.org/2000/svg" xmlns:xlink="http://www.w3.org/1999/xlink"><symbol viewBox="0 0 28 28" id="active-slider" xmlns="http://www.w3.org/2000/svg"><g filter="url(#aaa)"><circle cx="14" cy="10" r="10"/></g><defs><filter id="aaa" x="0" y="0" width="28" height="28" filterUnits="userSpaceOnUse" color-interpolation-filters="sRGB"><feFlood flood-opacity="0" result="BackgroundImageFix"/><feColorMatrix in="SourceAlpha" values="0 0 0 0 0 0 0 0 0 0 0 0 0 0 0 0 0 0 127 0" result="hardAlpha"/><feOffset dy="4"/><feGaussianBlur stdDeviation="2"/><feColorMatrix values="0 0 0 0 0 0 0 0 0 0 0 0 0 0 0 0 0 0 0.25 0"/><feBlend in2="BackgroundImageFix" result="effect1_dropShadow_111_416"/><feBlend in="SourceGraphic" in2="effect1_dropShadow_111_416" result="shape"/></filter></defs></symbol><symbol viewBox="0 0 44 44" id="creditCardWhite" xmlns="http://www.w3.org/2000/svg"><path d="M38.5 9.625h-33c-.76 0-1.375.616-1.375 1.375v22c0 .76.616 1.375 1.375 1.375h33c.76 0 1.375-.616 1.375-1.375V11c0-.76-.616-1.375-1.375-1.375Zm-9.626 19.25h5.5m-13.75 0h2.75M4.124 16.646h35.75" stroke-width="3" stroke-linecap="round" stroke-linejoin="round"/></symbol><symbol viewBox="0 0 34 28" id="icon-archive" xmlns="http://www.w3.org/2000/svg"><path d="M30.75 1.5H3.25C2.56 1.5 2 2.06 2 2.75v5C2 8.44 2.56 9 3.25 9h27.5C31.44 9 32 8.44 32 7.75v-5c0-.69-.56-1.25-1.25-1.25ZM29.5 9v16.25a1.25 1.25 0 0 1-1.25 1.25H5.75a1.25 1.25 0 0 1-1.25-1.25V9m8.75 6.25h7.5" stroke-width="3" stroke-linecap="round" stroke-linejoin="round"/></symbol><symbol viewBox="0 0 97 97" id="icon-book" xmlns="http://www.w3.org/2000/svg"><path d="M48.5 33.344a12.125 12.125 0 0 1 12.125-12.125h24.25a3.031 3.031 0 0 1 3.031 3.031v48.5a3.031 3.031 0 0 1-3.031 3.031h-24.25A12.125 12.125 0 0 0 48.5 87.906M9.094 72.75a3.031 3.031 0 0 0 3.031 3.031h24.25A12.125 12.125 0 0 1 48.5 87.906V33.344a12.125 12.125 0 0 0-12.125-12.125h-24.25a3.031 3.031 0 0 0-3.031 3.031v48.5Z"/></symbol><symbol viewBox="0 0 97 97" id="icon-card" xmlns="http://www.w3.org/2000/svg"><path d="M84.875 21.219h-72.75a3.031 3.031 0 0 0-3.031 3.031v48.5a3.031 3.031 0 0 0 3.031 3.031h72.75a3.031 3.031 0 0 0 3.031-3.031v-48.5a3.031 3.031 0 0 0-3.031-3.031ZM63.654 63.656h12.125m-30.312 0h6.062M9.092 36.698h78.812" stroke-width="6" stroke-linecap="round" stroke-linejoin="round"/></symbol><symbol viewBox="0 0 39 18" id="icon-click" xmlns="http://www.w3.org/2000/svg"><path d="M12.188 11.5h17.5a2.5 2.5 0 1 0 0-5h-22.5c-2.694 0-4.878 2.239-4.878 5s2.184 5 4.877 5H30a7.5 7.5 0 0 0 0-15H12.5"/></symbol><symbol viewBox="0 0 70 70" id="icon-down" xmlns="http://www.w3.org/2000/svg"><path d="m63.438 54.688-26.25-26.25L26.25 39.374 6.563 19.687"/><path d="M63.438 37.188v17.5h-17.5"/></symbol><symbol viewBox="0 0 34 34" id="icon-globe" xmlns="http://www.w3.org/2000/svg"><g stroke-width="3" stroke-linecap="round" stroke-linejoin="round"><path d="M17 32c8.284 0 15-6.716 15-15 0-8.284-6.716-15-15-15C8.716 2 2 8.716 2 17c0 8.284 6.716 15 15 15ZM2.854 12h28.292M2.855 22h28.291"/><path d="M17 31.597c3.452 0 6.25-6.535 6.25-14.597S20.452 2.403 17 2.403 10.75 8.938 10.75 17 13.548 31.597 17 31.597Z"/></g></symbol><symbol viewBox="0 0 86 65" id="icon-hand" xmlns="http://www.w3.org/2000/svg"><g opacity=".7"><path fill-rule="evenodd" clip-rule="evenodd" d="M40.995 36.602c-.166-1.072.175-2.12.792-2.784.744-.8.886-2.043.345-3.014-1.332-2.39-.911-3.767-.398-4.527.667-.987 1.946-1.605 3.016-1.605h18.333c.987 0 1.862-.68 2.174-1.687.312-1.008-.01-2.117-.799-2.754l-4.454-3.596-.073-.079c-.575-.616-1.042-1.116-1.364-1.72-.29-.542-.394-1.044-.185-1.72.126-.406.273-.606.368-.706a.82.82 0 0 1 .346-.217c.327-.11.734-.066.961.013l.041.015a30.676 30.676 0 0 1 .87.346c.59.241 1.407.59 2.315 1.02 1.87.882 3.929 2.01 5.244 3.143 2.766 2.382 4.86 5.724 6.266 9.115 1.414 3.414 2.04 6.657 2.04 8.695 0 4.604-.962 8.106-3.39 10.526-2.478 2.47-6.94 4.277-14.943 4.277-.653 0-1.289.01-1.92.021-1.083.018-2.154.036-3.28 0-1.731-.055-3.288-.238-4.589-.678-1.273-.43-2.196-1.07-2.824-1.985-.628-.915-1.137-2.362-1.137-4.759 0-.934-.49-1.789-1.267-2.207-1.704-.917-2.334-2.139-2.488-3.133ZM60.792 9.87l.747-2.333-.023-.008c-.92-.33-2.34-.53-3.784-.045-1.582.53-3.003 1.83-3.698 4.073-.707 2.284-.237 4.25.56 5.743.542 1.012 1.27 1.857 1.806 2.438H44.75c-2.367 0-5.099 1.233-6.723 3.638-1.537 2.275-1.86 5.238-.561 8.44-.919 1.631-1.298 3.622-.992 5.598.356 2.3 1.609 4.435 3.743 5.976.18 2.5.842 4.58 1.985 6.245 1.357 1.978 3.217 3.11 5.136 3.76 1.892.64 3.937.842 5.826.902 1.212.039 2.492.019 3.653 0 .602-.01 1.172-.018 1.683-.018 8.497 0 14.348-1.894 18.057-5.591 3.76-3.748 4.86-8.882 4.86-14.147 0-2.896-.832-6.83-2.439-10.705-1.615-3.898-4.103-7.957-7.588-10.958-1.81-1.56-4.335-2.898-6.267-3.81a53.97 53.97 0 0 0-3.5-1.5l-.06-.021-.016-.007-.008-.003-.747 2.333Z"/><path fill-rule="evenodd" clip-rule="evenodd" d="M39.02 32.073c0 1.363 1.027 2.468 2.292 2.468h12.605c1.265 0 2.291-1.105 2.291-2.468 0-1.362-1.026-2.467-2.291-2.467H41.312c-1.265 0-2.291 1.105-2.291 2.467Zm1.147 9.869c0 1.363 1.026 2.467 2.291 2.467h13.75c1.266 0 2.292-1.104 2.292-2.467s-1.026-2.467-2.292-2.467h-13.75c-1.265 0-2.291 1.104-2.291 2.467Z"/><path d="M64 59.55 51 12.535H38v47.013h26Z"/><path fill-rule="evenodd" clip-rule="evenodd" d="M47.46 41.707c.175-1.072-.184-2.12-.836-2.784a2.506 2.506 0 0 1-.363-3.014c1.404-2.39.961-3.767.42-4.527-.703-.987-2.052-1.605-3.18-1.605H24.166c-1.04 0-1.964-.68-2.293-1.687a2.497 2.497 0 0 1 .843-2.754l4.697-3.597.077-.078c.607-.617 1.098-1.117 1.439-1.72.306-.543.415-1.044.194-1.72-.133-.406-.287-.606-.388-.706a.874.874 0 0 0-.365-.217c-.344-.11-.774-.066-1.013.013l-.044.015-.19.07a53.902 53.902 0 0 0-3.168 1.295c-1.972.882-4.143 2.01-5.53 3.143-2.916 2.383-5.125 5.725-6.607 9.116-1.492 3.414-2.152 6.657-2.152 8.696 0 4.603 1.015 8.105 3.575 10.525C15.855 52.641 20.56 54.45 29 54.45c.689 0 1.359.01 2.024.02 1.143.019 2.272.036 3.46 0 1.825-.055 3.467-.238 4.838-.678 1.344-.43 2.317-1.07 2.979-1.984.662-.916 1.199-2.363 1.199-4.76 0-.934.517-1.788 1.336-2.206 1.797-.918 2.462-2.14 2.624-3.134ZM26.583 14.973l-.787-2.332.023-.008c.971-.33 2.468-.53 3.991-.046 1.669.531 3.167 1.83 3.9 4.073.745 2.285.25 4.25-.592 5.743-.57 1.013-1.337 1.858-1.904 2.44H43.5c2.496 0 5.377 1.232 7.09 3.637 1.62 2.275 1.96 5.238.591 8.44a8.364 8.364 0 0 1 1.047 5.599c-.376 2.299-1.697 4.434-3.948 5.975-.19 2.5-.887 4.581-2.093 6.246-1.431 1.977-3.393 3.11-5.416 3.76-1.995.639-4.151.841-6.144.902-1.278.038-2.628.018-3.852 0-.635-.01-1.236-.019-1.775-.019-8.96 0-15.13-1.893-19.042-5.59-3.965-3.749-5.125-8.882-5.125-14.147 0-2.897.878-6.83 2.571-10.706 1.704-3.898 4.328-7.957 8.003-10.959 1.909-1.559 4.571-2.898 6.609-3.81a58.575 58.575 0 0 1 3.692-1.499l.062-.022.017-.006.009-.003.787 2.332Z"/><path fill-rule="evenodd" clip-rule="evenodd" d="M49.542 37.178c0 1.363-1.082 2.468-2.417 2.468H33.833c-1.334 0-2.416-1.105-2.416-2.468 0-1.362 1.082-2.467 2.416-2.467h13.292c1.335 0 2.417 1.105 2.417 2.468Zm-1.209 9.869c0 1.363-1.082 2.468-2.416 2.468h-14.5c-1.335 0-2.417-1.105-2.417-2.468 0-1.362 1.082-2.467 2.417-2.467h14.5c1.334 0 2.416 1.105 2.416 2.467Z"/></g></symbol><symbol viewBox="0 0 28 35" id="icon-instruction" xmlns="http://www.w3.org/2000/svg"><g stroke-width="3" stroke-linecap="round" stroke-linejoin="round"><path d="M1.5 32a3.75 3.75 0 0 1 3.75-3.75H26.5V2H5.25A3.75 3.75 0 0 0 1.5 5.75V32Zm0 0v1.25H24"/><path d="M21.5 2v15l-5-3.75-5 3.75V2"/></g></symbol><symbol viewBox="0 0 70 70" id="icon-lamp" xmlns="http://www.w3.org/2000/svg"><path d="M26.25 54.688h17.5m-15.312 8.75h13.125m-19.689-17.5a21.874 21.874 0 1 1 26.254 0" stroke-width="6" stroke-linecap="round" stroke-linejoin="round"/></symbol><symbol viewBox="0 0 97 97" id="icon-letter" xmlns="http://www.w3.org/2000/svg"><g stroke-width="6" stroke-linecap="round" stroke-linejoin="round"><path d="M12.125 36.375v39.406a3.032 3.032 0 0 0 3.031 3.031h66.688a3.032 3.032 0 0 0 3.031-3.03V36.374L48.5 12.125l-36.375 24.25Z"/><path d="M84.875 36.375 55.114 57.594H41.886L12.125 36.375"/></g></symbol><symbol viewBox="0 0 40 40" id="icon-martini" xmlns="http://www.w3.org/2000/svg"><path d="M3.75 6.25h32.5L20 22.5 3.75 6.25ZM20 22.5v11.25m-6.25 0h12.5m-17.5-22.5h22.5" stroke-width="3" stroke-linecap="round" stroke-linejoin="round"/></symbol><symbol viewBox="0 0 97 97" id="icon-note" xmlns="http://www.w3.org/2000/svg"><path d="M48.5 60.625H36.375V48.5L72.75 12.125 84.875 24.25 48.5 60.625Zm15.156-39.406 12.125 12.125"/><path d="M81.844 45.469v33.343a3.031 3.031 0 0 1-3.031 3.032H18.187a3.031 3.031 0 0 1-3.03-3.031V18.187a3.031 3.031 0 0 1 3.03-3.03h33.344"/></symbol><symbol viewBox="0 0 32 32" id="icon-pencil" xmlns="http://www.w3.org/2000/svg"><g stroke-width="3" stroke-linecap="round" stroke-linejoin="round"><path d="M11 29.75H3.5a1.25 1.25 0 0 1-1.25-1.25v-6.982a1.25 1.25 0 0 1 .366-.884l18.75-18.75a1.25 1.25 0 0 1 1.768 0l6.982 6.982a1.25 1.25 0 0 1 0 1.768L11 29.75ZM17.25 6 26 14.75"/><path d="M29.75 29.75H11l-8.67-8.67"/></g></symbol><symbol viewBox="0 0 97 97" id="icon-phone" xmlns="http://www.w3.org/2000/svg"><path d="M60.404 15.156a30.369 30.369 0 0 1 21.44 21.44m-24.579-9.725A18.221 18.221 0 0 1 70.13 39.735m-35.09 7.558a31.96 31.96 0 0 0 14.797 14.73 3.004 3.004 0 0 0 2.967-.224l9.486-6.325a3.03 3.03 0 0 1 2.876-.264l17.746 7.605a3.02 3.02 0 0 1 1.819 3.144 18.19 18.19 0 0 1-18.043 15.885 51.531 51.531 0 0 1-51.532-51.531 18.191 18.191 0 0 1 15.885-18.044 3.022 3.022 0 0 1 3.144 1.819l7.612 17.762a3.031 3.031 0 0 1-.25 2.854l-6.303 9.632a3.004 3.004 0 0 0-.204 2.957Z"/></symbol><symbol viewBox="0 0 30 30" id="icon-phone-round" xmlns="http://www.w3.org/2000/svg"><circle cx="15" cy="15" r="15"/><path fill-rule="evenodd" clip-rule="evenodd" d="M11.604 17.705c2.318 2.318 4.471 3.61 6.073 4.328 1.399.627 3.05.135 4.337-1.152l.294-.295-3.536-2.25c-.672.98-1.943 1.555-3.212 1.02-.961-.406-2.233-1.1-3.37-2.237s-1.83-2.409-2.236-3.37c-.536-1.269.038-2.54 1.019-3.212l-2.25-3.536-.295.294c-1.287 1.287-1.778 2.938-1.152 4.337.718 1.602 2.01 3.755 4.328 6.073Zm5.256 6.153c-1.815-.813-4.172-2.24-6.67-4.739-2.498-2.497-3.926-4.855-4.74-6.67-1.075-2.4-.093-4.91 1.564-6.568l.294-.295a2 2 0 0 1 3.102.34l2.83 4.45a1 1 0 0 1-.396 1.43l-.633.317c-.432.216-.52.597-.415.848.339.803.906 1.831 1.808 2.734.903.902 1.931 1.47 2.734 1.808.251.106.632.017.848-.415l.317-.633a1.001 1.001 0 0 1 1.43-.397l4.45 2.831a2 2 0 0 1 .34 3.102l-.295.294c-1.657 1.658-4.167 2.64-6.568 1.563Z"/></symbol><symbol viewBox="0 0 17 17" id="icon-plus" xmlns="http://www.w3.org/2000/svg"><path d="M8 2v12.5M14.5 8H2" opacity=".7" stroke-width="4" stroke-linecap="round" stroke-linejoin="round"/></symbol><symbol viewBox="0 0 30 30" id="icon-skype-round" xmlns="http://www.w3.org/2000/svg"><circle cx="15" cy="15" r="15"/><path fill-rule="evenodd" clip-rule="evenodd" d="M6 9.5a3.5 3.5 0 0 1 5.965-2.485l.407.404.555-.148a8 8 0 0 1 9.802 9.802l-.148.555.404.407a3.5 3.5 0 1 1-4.95 4.95l-.407-.404-.555.148a8 8 0 0 1-9.803-9.802l.148-.555-.404-.407A3.486 3.486 0 0 1 6 9.5ZM9.5 4a5.5 5.5 0 0 0-4.288 8.944A10.04 10.04 0 0 0 5 15c0 5.523 4.477 10 10 10 .704 0 1.392-.073 2.056-.212a5.5 5.5 0 0 0 7.732-7.732c.14-.664.212-1.352.212-2.056 0-5.523-4.477-10-10-10-.704 0-1.392.073-2.056.212A5.48 5.48 0 0 0 9.5 4Zm4.142 8.33c.133-.253.587-.58 1.29-.58 1.207 0 1.872.472 2.178.706a1 1 0 1 0 1.214-1.59c-.49-.374-1.577-1.116-3.392-1.116-1.268 0-2.507.594-3.108 1.74a2.475 2.475 0 0 0 .077 2.466c.429.713 1.172 1.222 2.048 1.458l1.554.418c.598.161 1.507.717 1.18 1.466-.198.452-.897.952-1.927.952-.89 0-1.676-.154-2.4-.706a1 1 0 0 0-1.213 1.59c.97.74 1.977 1.116 3.392 1.116 1.579 0 3.302-.598 3.98-2.15.4-.915.268-1.874-.23-2.643-.769-1.184-2.091-1.527-3.372-1.858a42.614 42.614 0 0 1-.444-.117c-.526-.141-1.14-.553-.827-1.152Z"/></symbol><symbol viewBox="0 0 44 44" id="icon-sun" xmlns="http://www.w3.org/2000/svg"><path d="M22 32.834c5.983 0 10.833-4.85 10.833-10.834 0-5.983-4.85-10.833-10.833-10.833-5.983 0-10.833 4.85-10.833 10.833 0 5.983 4.85 10.834 10.833 10.834Zm0-27.501V2m-11.667 8.333-2.5-2.5M5.333 22H2m8.333 11.667-2.5 2.5M22 38.667V42m11.667-8.333 2.5 2.5M38.667 22H42m-8.333-11.667 2.5-2.5" stroke-width="3" stroke-linecap="round" stroke-linejoin="round"/></symbol><symbol viewBox="0 0 70 70" id="icon-tag" xmlns="http://www.w3.org/2000/svg"><path d="m33.541 7.076-22.054 4.411-4.41 22.054a2.187 2.187 0 0 0 .598 1.976l28.56 28.561a2.186 2.186 0 0 0 3.095 0l24.748-24.749a2.186 2.186 0 0 0 0-3.093L35.517 7.674a2.187 2.187 0 0 0-1.976-.598Z"/><path d="M22 26a4 4 0 1 0 0-8 4 4 0 0 0 0 8Z"/></symbol><symbol viewBox="0 0 97 97" id="icon-target" xmlns="http://www.w3.org/2000/svg"><path d="M48.5 54.563v36.374m0-36.374a9.094 9.094 0 1 0 0-18.188 9.094 9.094 0 0 0 0 18.188Z"/><path d="M80.913 40.844a42.285 42.285 0 0 1-11.194-28.719H27.28a42.285 42.285 0 0 1-11.194 28.72L48.5 90.938l32.413-50.094Z"/></symbol><symbol viewBox="0 0 35 35" id="icon-telegram" xmlns="http://www.w3.org/2000/svg"><path d="M31.852 1.606 2.738 9.818a1.25 1.25 0 0 0-.196 2.332l13.377 6.337c.26.123.47.333.595.594l6.336 13.377a1.25 1.25 0 0 0 2.332-.196l8.212-29.114a1.25 1.25 0 0 0-1.542-1.542Zm-15.53 17.072 7.071-7.071" stroke-width="3" stroke-linecap="round" stroke-linejoin="round"/></symbol><symbol viewBox="0 0 30 30" id="icon-vider-round" xmlns="http://www.w3.org/2000/svg"><circle cx="15" cy="15" r="15"/><path fill-rule="evenodd" clip-rule="evenodd" d="M6.5 14.5a8.5 8.5 0 1 1 3.958 7.186 1 1 0 0 0-.82-.113l-2.88.859 1.084-2.537a1 1 0 0 0-.07-.92A8.456 8.456 0 0 1 6.5 14.5ZM15 4C9.201 4 4.5 8.701 4.5 14.5c0 1.838.473 3.568 1.305 5.073L4.08 23.607a1 1 0 0 0 1.206 1.351l4.5-1.342A10.455 10.455 0 0 0 15 25c5.8 0 10.5-4.701 10.5-10.5S20.8 4 15 4Zm2.293 12.682-1.315.926A9.337 9.337 0 0 1 14 16.085a10.205 10.205 0 0 1-1.624-2.114l.835-.709a1 1 0 0 0 .236-1.232l-1.064-2a1 1 0 0 0-1.54-.283l-.316.275c-.759.662-1.208 1.75-.836 2.852a12.049 12.049 0 0 0 2.895 4.626c1.813 1.813 3.655 2.527 4.733 2.805.868.223 1.69-.076 2.268-.548l.591-.482a1 1 0 0 0-.12-1.634l-1.678-1a1 1 0 0 0-1.088.041h.001Z"/></symbol><symbol viewBox="0 0 94 45" id="logo" xmlns="http://www.w3.org/2000/svg"><path fill-rule="evenodd" clip-rule="evenodd" d="M17.897 29.556v.003l-1.817.34c-1.58 1.785-3.258 1.633-4.055.739l-2.757.439c-1.586 3.555-2.42 4.19-3.715.759l-3.476.76L0 36.95l6.552 2.996 14.022-2.996s4.953 8.828 11.585 7.07c6.632-1.757 5.153-9.667 5.153-9.667l10.986-2.237c2.23-.29 1.832 2.489-.998 6.112-.931 1.191-3.676 2.996-3.676 2.996l.64 1.958 10.706-1.638-.919-3.955-1.119-.64v-5.512l5.114-.72v1.998c-.126 1.21.173 1.56 1.318 1.638l5.513-.959 2.038 8.15c.774 2.096 1.786 2.903 5.632 3.036 6.551.022 10.345-.286 17.938-3.036 2.5-.976 3.26-2.066 3.515-4.954 0 0 0-7.031-1.598-17.058C90.804 9.505 85.85 1.315 85.85 1.315 84.443.024 83.48-.132 81.616.077 72.715.553 68.208 2.03 60.842 6.349c-1.612 1.15-1.822 1.978-1.518 3.635l1.878 7.11-6.232 2.118.4 2.597-4.874.999s-7.431-10.547-14.342-7.47C29.243 18.412 31.2 26.881 31.2 26.881l-8.39 1.598c-1.93.412-1.563-.643-.558-2.836.513-1.193 1.565-2.158 4.154-4.155l-.759-1.718-9.667 2.757.559 2.077 1.358 1.039c-.412 1.623-.264 2.446 0 3.912Zm69.95-7.268a5.113 5.113 0 1 1-10.226 0 5.113 5.113 0 0 1 10.227 0Zm-50.694 4.075 9.507-2.037s-1.677-4.475-6.232-3.556c-4.554.919-3.275 5.593-3.275 5.593ZM22.65 37.19l7.31-1.598c.89-.241.936.248.96 1.199 0 0-.2 2.876-3.796 2.996-3.595.12-4.474-2.597-4.474-2.597Z"/></symbol><symbol viewBox="0 0 50 27" id="menu-btn" xmlns="http://www.w3.org/2000/svg"><rect width="50" height="5" rx="2.5"/><rect x="14" y="11" width="36" height="5" rx="2.5"/><rect y="22" width="44" height="5" rx="2.5"/></symbol><symbol viewBox="0 0 8 8" id="not-active-slider" xmlns="http://www.w3.org/2000/svg"><circle cx="4" cy="4" r="4"/></symbol></svg>