<svg width="30" height="30" fill="none" xmlns="http://www.w3.org/2000/svg"><circle cx="15" cy="15" r="15" fill="#fff"/><path fill-rule="evenodd" clip-rule="evenodd" d="M6 9.5a3.5 3.5 0 015.965-2.485l.407.404.555-.148a8 8 0 019.802 9.802l-.148.555.404.407a3.5 3.5 0 11-4.95 4.95l-.407-.404-.555.148a8 8 0 01-9.803-9.802l.148-.555-.404-.407A3.486 3.486 0 016 9.5zM9.5 4a5.5 5.5 0 00-4.288 8.944A10.04 10.04 0 005 15c0 5.523 4.477 10 10 10 .704 0 1.392-.073 2.056-.212a5.5 5.5 0 007.732-7.732c.14-.664.212-1.352.212-2.056 0-5.523-4.477-10-10-10-.704 0-1.392.073-2.056.212A5.48 5.48 0 009.5 4zm4.142 8.33c.133-.253.587-.58 1.29-.58 1.207 0 1.872.472 2.178.706a1 1 0 101.214-1.59c-.49-.374-1.577-1.116-3.392-1.116-1.268 0-2.507.594-3.108 1.74a2.475 2.475 0 00.077 2.466c.429.713 1.172 1.222 2.048 1.458l1.554.418c.598.161 1.507.717 1.18 1.466-.198.452-.897.952-1.927.952-.89 0-1.676-.154-2.4-.706a1 1 0 00-1.213 1.59c.97.74 1.977 1.116 3.392 1.116 1.579 0 3.302-.598 3.98-2.15.4-.915.268-1.874-.23-2.643-.769-1.184-2.091-1.527-3.372-1.858a42.614 42.614 0 01-.444-.117c-.526-.141-1.14-.553-.827-1.152z" fill="#FF5E14"/></svg>