<svg width="30" height="30" fill="none" xmlns="http://www.w3.org/2000/svg"><circle cx="15" cy="15" r="15" fill="#fff"/><path fill-rule="evenodd" clip-rule="evenodd" d="M6.5 14.5a8.5 8.5 0 113.958 7.186 1 1 0 00-.82-.113l-2.88.859 1.084-2.537a1 1 0 00-.07-.92A8.456 8.456 0 016.5 14.5zM15 4C9.201 4 4.5 8.701 4.5 14.5c0 1.838.473 3.568 1.305 5.073L4.08 23.607a1 1 0 001.206 1.351l4.5-1.342A10.455 10.455 0 0015 25c5.8 0 10.5-4.701 10.5-10.5S20.8 4 15 4zm2.293 12.682l-1.315.926A9.337 9.337 0 0114 16.085a10.205 10.205 0 01-1.624-2.114l.835-.709a1 1 0 00.236-1.232l-1.064-2a1 1 0 00-1.54-.283l-.316.275c-.759.662-1.208 1.75-.836 2.852a12.049 12.049 0 002.895 4.626c1.813 1.813 3.655 2.527 4.733 2.805.868.223 1.69-.076 2.268-.548l.591-.482a1 1 0 00-.12-1.634l-1.678-1a1 1 0 00-1.088.041h.001z" fill="#FF5E14"/></svg>