<svg width="86" height="65" fill="none" xmlns="http://www.w3.org/2000/svg"><g opacity=".7"><path fill-rule="evenodd" clip-rule="evenodd" d="M40.995 36.602c-.166-1.072.175-2.12.792-2.784.744-.8.886-2.043.345-3.014-1.332-2.39-.911-3.767-.398-4.527.667-.987 1.946-1.605 3.016-1.605h18.333c.987 0 1.862-.68 2.174-1.687.312-1.008-.01-2.117-.799-2.754l-4.454-3.596-.073-.079c-.575-.616-1.042-1.116-1.364-1.72-.29-.542-.394-1.044-.185-1.72.126-.406.273-.606.368-.706a.82.82 0 01.346-.217c.327-.11.734-.066.961.013l.041.015a30.676 30.676 0 01.87.346c.59.241 1.407.59 2.315 1.02 1.87.882 3.929 2.01 5.244 3.143 2.766 2.382 4.86 5.724 6.266 9.115 1.414 3.414 2.04 6.657 2.04 8.695 0 4.604-.962 8.106-3.39 10.526-2.478 2.47-6.94 4.277-14.943 4.277-.653 0-1.289.01-1.92.021-1.083.018-2.154.036-3.28 0-1.731-.055-3.288-.238-4.589-.678-1.273-.43-2.196-1.07-2.824-1.985-.628-.915-1.137-2.362-1.137-4.759 0-.934-.49-1.789-1.267-2.207-1.704-.917-2.334-2.139-2.488-3.133zM60.792 9.87l.747-2.333-.023-.008c-.92-.33-2.34-.53-3.784-.045-1.582.53-3.003 1.83-3.698 4.073-.707 2.284-.237 4.25.56 5.743.542 1.012 1.27 1.857 1.806 2.438H44.75c-2.367 0-5.099 1.233-6.723 3.638-1.537 2.275-1.86 5.238-.561 8.44-.919 1.631-1.298 3.622-.992 5.598.356 2.3 1.609 4.435 3.743 5.976.18 2.5.842 4.58 1.985 6.245 1.357 1.978 3.217 3.11 5.136 3.76 1.892.64 3.937.842 5.826.902 1.212.039 2.492.019 3.653 0 .602-.01 1.172-.018 1.683-.018 8.497 0 14.348-1.894 18.057-5.591 3.76-3.748 4.86-8.882 4.86-14.147 0-2.896-.832-6.83-2.439-10.705-1.615-3.898-4.103-7.957-7.588-10.958-1.81-1.56-4.335-2.898-6.267-3.81a53.97 53.97 0 00-3.5-1.5l-.06-.021-.016-.007-.008-.003-.747 2.333z" fill="#008AC6"/><path fill-rule="evenodd" clip-rule="evenodd" d="M39.02 32.073c0 1.363 1.027 2.468 2.292 2.468h12.605c1.265 0 2.291-1.105 2.291-2.468 0-1.362-1.026-2.467-2.291-2.467H41.312c-1.265 0-2.291 1.105-2.291 2.467zm1.147 9.869c0 1.363 1.026 2.467 2.291 2.467h13.75c1.266 0 2.292-1.104 2.292-2.467s-1.026-2.467-2.292-2.467h-13.75c-1.265 0-2.291 1.104-2.291 2.467z" fill="#008AC6"/><path d="M64 59.55L51 12.535H38v47.013h26z" fill="#fff"/><path fill-rule="evenodd" clip-rule="evenodd" d="M47.46 41.707c.175-1.072-.184-2.12-.836-2.784a2.506 2.506 0 01-.363-3.014c1.404-2.39.961-3.767.42-4.527-.703-.987-2.052-1.605-3.18-1.605H24.166c-1.04 0-1.964-.68-2.293-1.687a2.497 2.497 0 01.843-2.754l4.697-3.597.077-.078c.607-.617 1.098-1.117 1.439-1.72.306-.543.415-1.044.194-1.72-.133-.406-.287-.606-.388-.706a.874.874 0 00-.365-.217c-.344-.11-.774-.066-1.013.013l-.044.015-.19.07a53.902 53.902 0 00-3.168 1.295c-1.972.882-4.143 2.01-5.53 3.143-2.916 2.383-5.125 5.725-6.607 9.116-1.492 3.414-2.152 6.657-2.152 8.696 0 4.603 1.015 8.105 3.575 10.525C15.855 52.641 20.56 54.45 29 54.45c.689 0 1.359.01 2.024.02 1.143.019 2.272.036 3.46 0 1.825-.055 3.467-.238 4.838-.678 1.344-.43 2.317-1.07 2.979-1.984.662-.916 1.199-2.363 1.199-4.76 0-.934.517-1.788 1.336-2.206 1.797-.918 2.462-2.14 2.624-3.134zM26.583 14.973l-.787-2.332.023-.008c.971-.33 2.468-.53 3.991-.046 1.669.531 3.167 1.83 3.9 4.073.745 2.285.25 4.25-.592 5.743-.57 1.013-1.337 1.858-1.904 2.44H43.5c2.496 0 5.377 1.232 7.09 3.637 1.62 2.275 1.96 5.238.591 8.44a8.364 8.364 0 011.047 5.599c-.376 2.299-1.697 4.434-3.948 5.975-.19 2.5-.887 4.581-2.093 6.246-1.431 1.977-3.393 3.11-5.416 3.76-1.995.639-4.151.841-6.144.902-1.278.038-2.628.018-3.852 0-.635-.01-1.236-.019-1.775-.019-8.96 0-15.13-1.893-19.042-5.59-3.965-3.749-5.125-8.882-5.125-14.147 0-2.897.878-6.83 2.571-10.706 1.704-3.898 4.328-7.957 8.003-10.959 1.909-1.559 4.571-2.898 6.609-3.81a58.575 58.575 0 013.692-1.499l.062-.022.017-.006.009-.003.787 2.332z" fill="#008AC6"/><path fill-rule="evenodd" clip-rule="evenodd" d="M49.542 37.178c0 1.363-1.082 2.468-2.417 2.468H33.833c-1.334 0-2.416-1.105-2.416-2.468 0-1.362 1.082-2.467 2.416-2.467h13.292c1.335 0 2.417 1.105 2.417 2.468zm-1.209 9.869c0 1.363-1.082 2.468-2.416 2.468h-14.5c-1.335 0-2.417-1.105-2.417-2.468 0-1.362 1.082-2.467 2.417-2.467h14.5c1.334 0 2.416 1.105 2.416 2.467z" fill="#008AC6"/></g></svg>