<svg width="97" height="97" fill="none" xmlns="http://www.w3.org/2000/svg"><path d="M60.404 15.156a30.369 30.369 0 0121.44 21.44m-24.579-9.725A18.221 18.221 0 0170.13 39.735m-35.09 7.558a31.96 31.96 0 0014.797 14.73 3.004 3.004 0 002.967-.224l9.486-6.325a3.03 3.03 0 012.876-.264l17.746 7.605a3.02 3.02 0 011.819 3.144 18.19 18.19 0 01-18.043 15.885 51.531 51.531 0 01-51.532-51.531 18.191 18.191 0 0115.885-18.044 3.022 3.022 0 013.144 1.819l7.612 17.762a3.031 3.031 0 01-.25 2.854l-6.303 9.632a3.004 3.004 0 00-.204 2.957v0z" stroke="#FF5E14" stroke-width="6" stroke-linecap="round" stroke-linejoin="round"/></svg>