<svg width="94" height="45" fill="none" xmlns="http://www.w3.org/2000/svg"><path fill-rule="evenodd" clip-rule="evenodd" d="M17.897 29.556v.003l-1.817.34c-1.58 1.785-3.258 1.633-4.055.739l-2.757.439c-1.586 3.555-2.42 4.19-3.715.759l-3.476.76L0 36.95l6.552 2.996 14.022-2.996s4.953 8.828 11.585 7.07c6.632-1.757 5.153-9.667 5.153-9.667l10.986-2.237c2.23-.29 1.832 2.489-.998 6.112-.931 1.191-3.676 2.996-3.676 2.996l.64 1.958 10.706-1.638-.919-3.955-1.119-.64v-5.512l5.114-.72v1.998c-.126 1.21.173 1.56 1.318 1.638l5.513-.959 2.038 8.15c.774 2.096 1.786 2.903 5.632 3.036 6.551.022 10.345-.286 17.938-3.036 2.5-.976 3.26-2.066 3.515-4.954 0 0 0-7.031-1.598-17.058C90.804 9.505 85.85 1.315 85.85 1.315 84.443.024 83.48-.132 81.616.077 72.715.553 68.208 2.03 60.842 6.349c-1.612 1.15-1.822 1.978-1.518 3.635l1.878 7.11-6.232 2.118.4 2.597-4.874.999s-7.431-10.547-14.342-7.47C29.243 18.412 31.2 26.881 31.2 26.881l-8.39 1.598c-1.93.412-1.563-.643-.558-2.836.513-1.193 1.565-2.158 4.154-4.155l-.759-1.718-9.667 2.757.559 2.077 1.358 1.039c-.412 1.623-.264 2.446 0 3.912zm69.95-7.268a5.113 5.113 0 11-10.226 0 5.113 5.113 0 0110.227 0zm-50.694 4.075l9.507-2.037s-1.677-4.475-6.232-3.556c-4.554.919-3.275 5.593-3.275 5.593zM22.65 37.19l7.31-1.598c.89-.241.936.248.96 1.199 0 0-.2 2.876-3.796 2.996-3.595.12-4.474-2.597-4.474-2.597z" fill="url(#paint0_linear_113_8)"/><defs><linearGradient id="paint0_linear_113_8" x1="96.117" y1="39.626" x2="-1.119" y2="32.675" gradientUnits="userSpaceOnUse"><stop stop-color="#3D361A"/><stop offset=".098" stop-color="#C2AE30"/><stop offset=".179" stop-color="#F9EA8C"/><stop offset=".29" stop-color="#FDF9CD"/><stop offset=".405" stop-color="#F9EA8C"/><stop offset=".524" stop-color="#F9EA8C"/><stop offset=".615" stop-color="#EADD76"/><stop offset=".693" stop-color="#FDF9CD"/><stop offset=".784" stop-color="#EADD76"/><stop offset=".874" stop-color="#C2AE30"/><stop offset=".995" stop-color="#3D361A"/></linearGradient></defs></svg>